<svg width="21" height="25" viewBox="0 0 21 25" fill="none" xmlns="http://www.w3.org/2000/svg">
<path d="M3.74163 7.59354H2.87162V13.0505H2.88562V18.7715C2.88562 19.2155 3.26963 19.5675 3.74163 19.5675H5.56563V23.0885C5.56563 23.8705 6.24262 24.5005 7.08262 24.5005C7.92062 24.5005 8.60363 23.8705 8.60363 23.0875V19.5665H11.4306V23.0875C11.4306 23.8705 12.1106 24.5005 12.9496 24.5005C13.7876 24.5005 14.4666 23.8705 14.4666 23.0875V19.5665H16.2946C16.7636 19.5665 17.1456 19.2145 17.1456 18.7705V13.0505H17.1546V7.59354H3.74163ZM18.8726 7.59354C18.2426 7.59354 17.7286 8.22854 17.7286 9.02054V15.4405C17.7286 16.2235 18.2426 16.8675 18.8726 16.8675C19.5016 16.8675 20.0156 16.2235 20.0156 15.4405V9.02054C20.0156 8.22854 19.5016 7.59354 18.8726 7.59354ZM1.15863 7.59354C0.528625 7.59354 0.015625 8.22854 0.015625 9.02054V15.4405C0.015625 16.2235 0.528625 16.8675 1.15863 16.8675C1.78763 16.8675 2.30163 16.2235 2.30163 15.4405V9.02054C2.30163 8.22854 1.78763 7.59354 1.15863 7.59354ZM12.7406 5.04154C12.2856 5.04154 11.9176 4.69554 11.9176 4.27054C11.9176 3.84554 12.2856 3.50654 12.7406 3.50654C13.1926 3.50654 13.5616 3.84654 13.5616 4.27054C13.5616 4.69454 13.1926 5.04154 12.7406 5.04154ZM6.71962 5.04154C6.26263 5.04154 5.89463 4.69554 5.89463 4.27054C5.89463 3.84554 6.26363 3.50654 6.71962 3.50654C7.17763 3.50654 7.54663 3.84654 7.54663 4.27054C7.54663 4.69454 7.17763 5.04154 6.71962 5.04154ZM13.0636 2.23154L14.2446 0.681542C14.2726 0.647542 14.2386 0.587542 14.1666 0.540542C14.1046 0.497542 14.0296 0.488542 14.0046 0.517542L12.7796 2.12354C11.9586 1.81854 10.9516 1.63254 9.72863 1.63054C8.50163 1.62854 7.49362 1.80654 6.66862 2.10154L5.45962 0.517542C5.43162 0.487542 5.35763 0.496542 5.29163 0.540542C5.22263 0.587542 5.18663 0.647542 5.21163 0.681542L6.37862 2.21754C2.97263 3.61154 2.87162 7.04554 2.87162 7.04554H16.5876C16.5876 7.04554 16.4516 3.64654 13.0636 2.23154Z" fill="white"/>
</svg>
