<svg width="22" height="25" viewBox="0 0 22 25" fill="none" xmlns="http://www.w3.org/2000/svg">
<path d="M14.4724 4.261C15.3534 3.258 15.9614 1.889 15.7924 0.5C14.5134 0.553 12.9234 1.303 12.0034 2.288C11.1854 3.155 10.4604 4.573 10.6504 5.909C12.0854 6.009 13.5564 5.252 14.4724 4.261ZM17.5594 13.274C17.5234 10.244 20.2264 8.768 20.3494 8.701C18.8194 6.634 16.4534 6.35 15.6144 6.327C13.6244 6.131 11.6954 7.431 10.6854 7.431C9.64938 7.431 8.09038 6.343 6.40838 6.376C4.24238 6.411 2.21738 7.572 1.10638 9.38C-1.18662 13.074 0.524378 18.488 2.71838 21.464C3.81638 22.925 5.10038 24.558 6.78038 24.497C8.42638 24.44 9.04038 23.526 11.0194 23.526C12.9874 23.526 13.5614 24.497 15.2844 24.464C17.0484 24.441 18.1554 22.993 19.2204 21.523C20.4894 19.847 20.9954 18.207 21.0164 18.113C20.9744 18.109 17.5884 16.904 17.5594 13.274Z" fill="white"/>
</svg>
