<svg width="21" height="21" viewBox="0 0 21 21" fill="none" xmlns="http://www.w3.org/2000/svg">
<g clip-path="url(#clip0_6961_69309)">
<path fill-rule="evenodd" clip-rule="evenodd" d="M20.25 1.44141V18.9414C20.25 19.6254 19.684 20.1914 19 20.1914H14V12.4184H16.5L16.92 9.53741H14V7.27141C14 6.45141 14.42 5.98241 15.25 5.98241H17.125V3.38441C17.125 3.38441 16.285 3.24841 15.075 3.24841C12.33 3.24841 10.943 4.77141 10.943 7.04641V9.53641H8.443V12.4184H10.943V20.1914H1.5C0.816 20.1914 0.25 19.6254 0.25 18.9414V1.44141C0.25 0.757406 0.816 0.191406 1.5 0.191406H19C19.684 0.191406 20.25 0.757406 20.25 1.44141Z" fill="#A0A6AB"/>
</g>
<defs>
<clipPath id="clip0_6961_69309">
<rect width="20" height="20" fill="white" transform="translate(0.25 0.191406)"/>
</clipPath>
</defs>
</svg>
