<svg width="22" height="21" viewBox="0 0 22 21" fill="none" xmlns="http://www.w3.org/2000/svg">
<g clip-path="url(#clip0_6961_69312)">
<path fill-rule="evenodd" clip-rule="evenodd" d="M18.2929 0.191406C19.0672 0.191936 19.8096 0.499748 20.3571 1.04724C20.9045 1.59473 21.2124 2.33714 21.2129 3.11141V17.2714C21.2124 18.0457 20.9045 18.7881 20.3571 19.3356C19.8096 19.8831 19.0672 20.1909 18.2929 20.1914H4.13289C3.35862 20.1909 2.61622 19.8831 2.06872 19.3356C1.52123 18.7881 1.21342 18.0457 1.21289 17.2714V3.11141C1.21342 2.33714 1.52123 1.59473 2.06872 1.04724C2.61622 0.499748 3.35862 0.191936 4.13289 0.191406L18.2929 0.191406ZM11.2129 6.44141C10.2333 6.46403 9.30149 6.86905 8.6167 7.56985C7.9319 8.27064 7.5485 9.21158 7.5485 10.1914C7.5485 11.1712 7.9319 12.1122 8.6167 12.813C9.30149 13.5138 10.2333 13.9188 11.2129 13.9414C12.1925 13.9188 13.1243 13.5138 13.8091 12.813C14.4939 12.1122 14.8773 11.1712 14.8773 10.1914C14.8773 9.21158 14.4939 8.27064 13.8091 7.56985C13.1243 6.86905 12.1925 6.46403 11.2129 6.44141ZM19.1329 17.6914V8.94141H16.9159C17.0039 9.34141 17.0429 9.76141 17.0429 10.1914C17.0433 10.9571 16.8928 11.7154 16.5999 12.4229C16.3071 13.1304 15.8776 13.7733 15.3362 14.3147C14.7948 14.8562 14.1519 15.2856 13.4444 15.5784C12.7369 15.8713 11.9786 16.0218 11.2129 16.0214C10.4472 16.0218 9.68889 15.8713 8.98138 15.5784C8.27387 15.2856 7.63102 14.8562 7.08958 14.3147C6.54813 13.7733 6.11872 13.1304 5.82587 12.4229C5.53302 11.7154 5.3825 10.9571 5.38289 10.1914C5.38289 9.76141 5.42189 9.34141 5.50889 8.94141H3.29289V17.6914C3.29289 17.9254 3.47789 18.1114 3.71289 18.1114H18.7129C18.9469 18.1114 19.1329 17.9254 19.1329 17.6914ZM19.1329 5.19141V2.69141C19.1333 2.63614 19.1227 2.58135 19.1017 2.53021C19.0808 2.47907 19.0498 2.43261 19.0108 2.39353C18.9717 2.35445 18.9252 2.32353 18.8741 2.30256C18.823 2.2816 18.7682 2.27101 18.7129 2.27141H16.2129C16.1576 2.27101 16.1028 2.2816 16.0517 2.30256C16.0006 2.32353 15.9541 2.35445 15.915 2.39353C15.8759 2.43261 15.845 2.47907 15.824 2.53021C15.8031 2.58135 15.7925 2.63614 15.7929 2.69141V5.19141C15.7929 5.42541 15.9779 5.61141 16.2129 5.61141H18.7129C18.9469 5.61141 19.1329 5.42541 19.1329 5.19141Z" fill="#A0A6AB"/>
</g>
<defs>
<clipPath id="clip0_6961_69312">
<rect width="21" height="20" fill="white" transform="translate(0.75 0.191406)"/>
</clipPath>
</defs>
</svg>
