<svg width="37" height="37" viewBox="0 0 37 37" fill="none" xmlns="http://www.w3.org/2000/svg">
<path d="M16.2188 22.3359H19.2188C21.0753 22.3359 22.8557 21.5984 24.1685 20.2857C25.4813 18.9729 26.2188 17.1925 26.2188 15.3359C26.2188 13.4794 25.4813 11.6989 24.1685 10.3862C22.8557 9.07344 21.0753 8.33594 19.2188 8.33594H12.2188V28.3359H16.2188V22.3359ZM2.21875 0.335938H34.2188C34.7492 0.335938 35.2579 0.546651 35.633 0.921724C36.008 1.2968 36.2188 1.8055 36.2188 2.33594V34.3359C36.2188 34.8664 36.008 35.3751 35.633 35.7502C35.2579 36.1252 34.7492 36.3359 34.2188 36.3359H2.21875C1.68832 36.3359 1.17961 36.1252 0.804536 35.7502C0.429464 35.3751 0.21875 34.8664 0.21875 34.3359V2.33594C0.21875 1.8055 0.429464 1.2968 0.804536 0.921724C1.17961 0.546651 1.68832 0.335938 2.21875 0.335938ZM16.2188 12.3359H19.2188C20.0144 12.3359 20.7775 12.652 21.3401 13.2146C21.9027 13.7772 22.2188 14.5403 22.2188 15.3359C22.2188 16.1316 21.9027 16.8946 21.3401 17.4573C20.7775 18.0199 20.0144 18.3359 19.2188 18.3359H16.2188V12.3359Z" fill="#FCFCFC"/>
</svg>
