<svg width="25" height="24" viewBox="0 0 25 24" fill="none" xmlns="http://www.w3.org/2000/svg">
<g clip-path="url(#clip0_6961_69434)">
<path d="M13.5163 16.5084V20.001H11.4853V16.5084H13.5163ZM19.9049 16.5084V20.001H17.8739V16.5084H19.9049ZM16.7106 16.5084V20.001H14.6796V16.5084H16.7106ZM10.322 16.5084V20.001H8.29095V16.5084H10.322ZM7.12768 16.5084V20.001H5.09665V16.5084H7.12768ZM18.7935 11.8516L19.7182 14.1809H20.0994C20.7416 14.1809 21.2641 13.6585 21.2641 13.0163H22.4274C22.4274 14.2999 21.383 15.3442 20.0994 15.3442V15.3442H4.90215C3.61852 15.3442 2.57422 14.2999 2.57422 13.0163H3.73749C3.73749 13.6585 4.25995 14.1809 4.90219 14.1809H5.28344L6.20816 11.8516H18.7935ZM18.5183 9.13513V10.6884H6.48323V9.13513H18.5183ZM16.945 3.70312L18.1775 6.80766H18.7128C19.355 6.80766 19.8775 6.2852 19.8775 5.64299H21.0408C21.0408 6.92662 19.9965 7.97093 18.7128 7.97093H6.28873C5.0051 7.97093 3.9608 6.92662 3.9608 5.64299H5.12407C5.12407 6.28516 5.64653 6.80766 6.28873 6.80766H6.82403L8.05659 3.70312H16.945Z" fill="#828282"/>
</g>
<defs>
<clipPath id="clip0_6961_69434">
<rect width="24" height="24" fill="white" transform="translate(0.5)"/>
</clipPath>
</defs>
</svg>
