<svg width="16" height="16" viewBox="0 0 16 16" fill="none" xmlns="http://www.w3.org/2000/svg">
<g clip-path="url(#clip0_4301_20447)">
<path d="M12.0208 11.0777L14.8762 13.9323L13.9328 14.8757L11.0782 12.0203C10.016 12.8718 8.69483 13.3349 7.3335 13.333C4.0215 13.333 1.3335 10.645 1.3335 7.33301C1.3335 4.02101 4.0215 1.33301 7.3335 1.33301C10.6455 1.33301 13.3335 4.02101 13.3335 7.33301C13.3354 8.69434 12.8723 10.0155 12.0208 11.0777ZM10.6835 10.583C11.5296 9.71293 12.0021 8.54663 12.0002 7.33301C12.0002 4.75434 9.9115 2.66634 7.3335 2.66634C4.75483 2.66634 2.66683 4.75434 2.66683 7.33301C2.66683 9.91101 4.75483 11.9997 7.3335 11.9997C8.54712 12.0016 9.71342 11.5291 10.5835 10.683L10.6835 10.583Z" fill="#4F4F4F"/>
</g>
<defs>
<clipPath id="clip0_4301_20447">
<rect width="16" height="16" fill="white"/>
</clipPath>
</defs>
</svg>
