<svg width="49" height="49" viewBox="0 0 49 49" fill="none" xmlns="http://www.w3.org/2000/svg">
<path d="M12.2188 4.33594L6.21875 12.3359V40.3359C6.21875 41.3968 6.64018 42.4142 7.39032 43.1644C8.14047 43.9145 9.15788 44.3359 10.2188 44.3359H38.2188C39.2796 44.3359 40.297 43.9145 41.0472 43.1644C41.7973 42.4142 42.2188 41.3968 42.2188 40.3359V12.3359L36.2188 4.33594H12.2188Z" stroke="#FCFCFC" stroke-width="2" stroke-linecap="round" stroke-linejoin="round"/>
<path d="M6.21875 12.3359H42.2188" stroke="#FCFCFC" stroke-width="2" stroke-linecap="round" stroke-linejoin="round"/>
<path d="M32.2188 20.3359C32.2188 22.4577 31.3759 24.4925 29.8756 25.9928C28.3753 27.4931 26.3405 28.3359 24.2188 28.3359C22.097 28.3359 20.0622 27.4931 18.5619 25.9928C17.0616 24.4925 16.2188 22.4577 16.2188 20.3359" stroke="#FCFCFC" stroke-width="2" stroke-linecap="round" stroke-linejoin="round"/>
</svg>
