<svg width="21" height="18" viewBox="0 0 21 18" fill="none" xmlns="http://www.w3.org/2000/svg">
<g clip-path="url(#clip0_6961_69315)">
<path fill-rule="evenodd" clip-rule="evenodd" d="M20.25 2.77729C19.702 3.60297 19.0108 4.32399 18.209 4.90629V5.44329C18.209 10.8633 14.088 17.1133 6.549 17.1133C4.234 17.1133 2.057 16.6053 0.25 15.4433C0.572 15.4923 0.895 15.5113 1.227 15.5113C3.141 15.5113 4.927 14.6813 6.314 13.5683C4.537 13.5483 3.004 12.3383 2.496 10.7163C2.75 10.7663 3.004 10.7953 3.258 10.7953C3.628 10.7953 4 10.7453 4.352 10.6483C3.42287 10.4615 2.58713 9.95864 1.98695 9.22518C1.38677 8.49173 1.05921 7.57301 1.06 6.62529V6.57529C1.62941 6.88919 2.26513 7.06363 2.915 7.08429C2.35235 6.7132 1.89032 6.2086 1.57013 5.61551C1.24994 5.02242 1.08156 4.35929 1.08 3.68529C1.08 2.92329 1.295 2.29829 1.637 1.69329C3.677 4.17329 6.686 5.71629 10.084 5.90229C10.0195 5.59088 9.99001 5.27325 9.996 4.95529C9.99495 4.41762 10.1001 3.88504 10.3053 3.3881C10.5106 2.89116 10.812 2.43964 11.1922 2.05946C11.5724 1.67927 12.0239 1.3779 12.5208 1.17263C13.0178 0.967358 13.5503 0.862235 14.088 0.863289C15.27 0.863289 16.334 1.37129 17.105 2.15229C18.0178 1.96895 18.8928 1.63218 19.693 1.15629C19.3915 2.11103 18.7484 2.92104 17.887 3.43129C18.7036 3.33596 19.5006 3.11537 20.25 2.77729Z" fill="#A0A6AB"/>
</g>
<defs>
<clipPath id="clip0_6961_69315">
<rect width="20" height="17" fill="white" transform="translate(0.25 0.191406)"/>
</clipPath>
</defs>
</svg>
