<svg width="96" height="96" viewBox="0 0 96 96" fill="none" xmlns="http://www.w3.org/2000/svg">
<rect width="96" height="96" fill="#E5E5E5"/>
<rect width="375" height="812" transform="translate(-48 -480)" fill="#111111"/>
<mask id="mask0_4_1501" style="mask-type:alpha" maskUnits="userSpaceOnUse" x="0" y="0" width="96" height="96">
<circle cx="48" cy="48" r="48" fill="#EEEEEE"/>
</mask>
<g mask="url(#mask0_4_1501)">
<rect width="96" height="96" fill="#333333"/>
<path d="M51.6373 64.7111V77.2211H44.3624V64.7111H51.6373ZM74.5205 64.7111V77.2211H67.2456V64.7111H74.5205ZM63.0789 64.7111V77.2211H55.8041V64.7111H63.0789ZM40.1957 64.7111V77.2211H32.9209V64.7111H40.1957ZM28.7542 64.7111V77.2211H21.4793V64.7111H28.7542ZM70.5393 48.0313L73.8516 56.3745H75.2171C77.5174 56.3745 79.3888 54.5032 79.3888 52.203H83.5555C83.5555 56.8006 79.8149 60.5411 75.2171 60.5411V60.541H20.7827C16.1849 60.541 12.4443 56.8006 12.4443 52.2028H16.611C16.611 54.5031 18.4824 56.3745 20.7828 56.3745H22.1484L25.4606 48.0313H70.5393ZM69.5539 38.3011V43.8646H26.4459V38.3011H69.5539ZM63.9185 18.8445L68.3332 29.9645H70.2506C72.5509 29.9645 74.4223 28.0931 74.4223 25.7928H78.5889C78.5889 30.3906 74.8484 34.1311 70.2506 34.1311H25.7492C21.1514 34.1311 17.4109 30.3906 17.4109 25.7928H21.5775C21.5775 28.093 23.4489 29.9645 25.7492 29.9645H27.6666L32.0814 18.8445H63.9185Z" fill="#828282"/>
</g>
<path d="M-28 -15H124V-17H-28V-15ZM127 -12V220H129V-12H127ZM124 223H-28V225H124V223ZM-31 220V-12H-33V220H-31ZM-28 223C-29.6569 223 -31 221.657 -31 220H-33C-33 222.761 -30.7614 225 -28 225V223ZM127 220C127 221.657 125.657 223 124 223V225C126.761 225 129 222.761 129 220H127ZM124 -15C125.657 -15 127 -13.6569 127 -12H129C129 -14.7614 126.761 -17 124 -17V-15ZM-28 -17C-30.7614 -17 -33 -14.7614 -33 -12H-31C-31 -13.6569 -29.6569 -15 -28 -15V-17Z" fill="#333333"/>
</svg>
